<?xml version="1.0" standalone="no"?>
<!DOCTYPE svg PUBLIC "-//W3C//DTD SVG 20010904//EN"
 "http://www.w3.org/TR/2001/REC-SVG-20010904/DTD/svg10.dtd">
<svg version="1.0" xmlns="http://www.w3.org/2000/svg"
 width="700.000000pt" height="700.000000pt" viewBox="0 0 700.000000 700.000000"
 preserveAspectRatio="xMidYMid meet">
<metadata>
Created by potrace 1.14, written by Peter Selinger 2001-2017
</metadata>
<g transform="translate(0.000000,700.000000) scale(0.100000,-0.100000)"
fill="#000000" stroke="none">
<path d="M439 6988 c0 -7 -1 -106 -1 -219 l-1 -206 -216 0 -216 1 -3 -3062
c-2 -2446 0 -3062 10 -3063 7 0 105 -2 218 -2 l205 -2 2 -210 c1 -116 2 -213
2 -218 1 -4 1379 -6 3063 -5 l3062 3 -1 216 0 216 210 -1 c115 -1 213 2 218 5
5 3 8 1245 7 3064 l-3 3058 -216 0 -216 0 0 216 0 216 -3061 3 c-2446 2 -3062
0 -3063 -10z m5676 -427 c7 -1 10 -78 10 -216 0 -118 2 -216 5 -216 3 -1 98
-2 212 -3 113 0 210 -4 214 -8 12 -12 11 -5237 -1 -5241 -5 -2 -103 -3 -217
-2 -115 0 -209 -2 -209 -5 -1 -3 -2 -101 -3 -219 l-1 -214 -2615 1 c-1438 0
-2620 1 -2625 1 -7 1 -10 78 -10 216 0 118 -2 216 -5 216 -3 1 -98 2 -212 3
-113 0 -210 4 -214 8 -4 5 -7 1186 -7 2625 l0 2618 214 1 c118 1 216 2 219 3
3 0 5 97 5 214 -1 116 0 214 1 217 2 4 5191 5 5239 1z"/>
<path d="M1320 6120 c-4 -3 -7 -99 -8 -213 0 -115 -3 -211 -6 -214 -3 -4 -95
-6 -204 -5 -108 0 -204 -1 -212 -3 -13 -4 -15 -207 -15 -1750 l0 -1745 60 -1
c33 0 132 -1 219 -2 l160 -2 -1 -218 -1 -217 2188 0 2188 0 0 203 c1 111 1
210 2 219 0 16 16 17 173 17 94 0 192 0 217 0 l45 1 0 1748 0 1747 -218 0
-217 0 0 40 c-1 22 -2 121 -3 220 l-2 180 -2178 0 c-1198 0 -2182 -2 -2187 -5z
m3491 -912 c0 -43 0 -363 -1 -384 0 -9 -335 -12 -1306 -12 -718 0 -1307 -2
-1310 -5 -4 -4 -8 -380 -5 -422 1 -7 439 -10 1307 -10 718 0 1308 -4 1311 -8
7 -12 6 -417 -1 -424 -3 -4 -495 -7 -1093 -7 l-1088 -1 0 -215 0 -215 218 -3
217 -2 1 -48 c1 -58 1 -375 0 -384 -2 -12 -430 -6 -434 6 -2 6 -3 104 -2 219
l0 207 -217 0 c-167 0 -218 -3 -219 -12 0 -7 0 -203 -1 -435 0 -310 -3 -423
-11 -425 -7 -2 -104 -4 -217 -4 l-205 1 -3 1313 -2 1312 1530 0 1530 0 1 -42z
m427 -398 c10 0 12 -47 10 -217 l-3 -218 -217 0 -216 0 0 217 -1 217 32 3 c25
2 323 1 395 -2z m-1745 -1749 c4 -1 7 -99 7 -219 l0 -217 -212 1 c-117 1 -216
2 -219 3 -3 0 -6 98 -6 216 0 185 2 214 15 217 12 2 382 1 415 -1z"/>
</g>
</svg>
