<svg width="655" height="250" viewBox="0 0 655 250" fill="none" xmlns="http://www.w3.org/2000/svg">
<g clip-path="url(#clip0)">
<rect width="655" height="250" fill="#2196F3"/>
<circle cx="165.5" cy="74.5" r="115.5" stroke="#FFC107" stroke-width="10"/>
<circle cx="496.5" cy="183.5" r="357.5" stroke="#F44336" stroke-width="10"/>
<path d="M240.279 67V126.553H226.581V78.2301H199.697V126.553H186V67H240.279Z" fill="white"/>
<path d="M275.46 127.234C270.639 127.234 266.3 126.241 262.443 124.256C258.643 122.214 255.665 119.407 253.51 115.834C251.355 112.261 250.277 108.205 250.277 103.668C250.277 99.1304 251.355 95.0752 253.51 91.502C255.665 87.9288 258.643 85.1496 262.443 83.1645C266.3 81.1227 270.639 80.1017 275.46 80.1017C280.281 80.1017 284.591 81.1227 288.391 83.1645C292.191 85.1496 295.169 87.9288 297.324 91.502C299.479 95.0752 300.557 99.1304 300.557 103.668C300.557 108.205 299.479 112.261 297.324 115.834C295.169 119.407 292.191 122.214 288.391 124.256C284.591 126.241 280.281 127.234 275.46 127.234ZM275.46 116.344C278.863 116.344 281.642 115.21 283.797 112.941C286.009 110.616 287.115 107.525 287.115 103.668C287.115 99.8111 286.009 96.7483 283.797 94.4796C281.642 92.1542 278.863 90.9915 275.46 90.9915C272.057 90.9915 269.249 92.1542 267.037 94.4796C264.825 96.7483 263.719 99.8111 263.719 103.668C263.719 107.525 264.825 110.616 267.037 112.941C269.249 115.21 272.057 116.344 275.46 116.344Z" fill="white"/>
<path d="M309.686 80.7823H322.872V108.007L345.162 80.7823H357.328V126.553H344.141V99.329L321.936 126.553H309.686V80.7823Z" fill="white"/>
<path d="M391.866 127.234C386.988 127.234 382.593 126.241 378.679 124.256C374.822 122.214 371.788 119.407 369.576 115.834C367.421 112.261 366.343 108.205 366.343 103.668C366.343 99.1304 367.421 95.0752 369.576 91.502C371.788 87.9288 374.822 85.1496 378.679 83.1645C382.593 81.1227 386.988 80.1017 391.866 80.1017C396.687 80.1017 400.884 81.1227 404.457 83.1645C408.087 85.1496 410.724 88.0138 412.369 91.7572L402.075 97.2871C399.693 93.09 396.261 90.9915 391.781 90.9915C388.321 90.9915 385.457 92.1258 383.188 94.3945C380.919 96.6632 379.785 99.7543 379.785 103.668C379.785 107.581 380.919 110.672 383.188 112.941C385.457 115.21 388.321 116.344 391.781 116.344C396.318 116.344 399.75 114.246 402.075 110.049L412.369 115.664C410.724 119.294 408.087 122.129 404.457 124.171C400.884 126.213 396.687 127.234 391.866 127.234Z" fill="white"/>
<path d="M440.597 109.198H433.706V126.553H420.434V80.7823H433.706V98.5633H440.852L453.274 80.7823H467.396L451.402 102.732L468.502 126.553H452.848L440.597 109.198Z" fill="white"/>
<path d="M341.243 161.768C344.36 162.265 346.749 163.409 348.41 165.199C350.07 166.956 350.9 169.144 350.9 171.762C350.9 173.785 350.358 175.657 349.274 177.381C348.189 179.072 346.529 180.431 344.293 181.459C342.09 182.486 339.379 183 336.16 183C333.653 183 331.179 182.685 328.739 182.055C326.333 181.392 324.283 180.464 322.589 179.271L325.791 173.105C327.147 174.099 328.705 174.878 330.467 175.442C332.263 175.972 334.093 176.238 335.957 176.238C338.024 176.238 339.65 175.856 340.836 175.094C342.022 174.298 342.615 173.188 342.615 171.762C342.615 168.912 340.396 167.486 335.957 167.486H332.195V162.166L339.515 154.061H324.368V147.597H349.274V152.818L341.243 161.768Z" fill="white"/>
<path d="M384.345 183C381.397 183 378.771 182.287 376.467 180.862C374.163 179.436 372.35 177.381 371.028 174.696C369.741 171.978 369.097 168.746 369.097 165C369.097 161.254 369.741 158.039 371.028 155.354C372.35 152.635 374.163 150.564 376.467 149.138C378.771 147.713 381.397 147 384.345 147C387.293 147 389.919 147.713 392.224 149.138C394.528 150.564 396.324 152.635 397.611 155.354C398.933 158.039 399.594 161.254 399.594 165C399.594 168.746 398.933 171.978 397.611 174.696C396.324 177.381 394.528 179.436 392.224 180.862C389.919 182.287 387.293 183 384.345 183ZM384.345 176.188C386.514 176.188 388.208 175.276 389.428 173.453C390.682 171.63 391.309 168.812 391.309 165C391.309 161.188 390.682 158.37 389.428 156.547C388.208 154.724 386.514 153.812 384.345 153.812C382.21 153.812 380.516 154.724 379.262 156.547C378.042 158.37 377.433 161.188 377.433 165C377.433 168.812 378.042 171.63 379.262 173.453C380.516 175.276 382.21 176.188 384.345 176.188Z" fill="white"/>
<path d="M418.843 183C415.895 183 413.269 182.287 410.964 180.862C408.66 179.436 406.847 177.381 405.526 174.696C404.238 171.978 403.594 168.746 403.594 165C403.594 161.254 404.238 158.039 405.526 155.354C406.847 152.635 408.66 150.564 410.964 149.138C413.269 147.713 415.895 147 418.843 147C421.791 147 424.417 147.713 426.721 149.138C429.025 150.564 430.821 152.635 432.109 155.354C433.431 158.039 434.091 161.254 434.091 165C434.091 168.746 433.431 171.978 432.109 174.696C430.821 177.381 429.025 179.436 426.721 180.862C424.417 182.287 421.791 183 418.843 183ZM418.843 176.188C421.011 176.188 422.706 175.276 423.926 173.453C425.179 171.63 425.806 168.812 425.806 165C425.806 161.188 425.179 158.37 423.926 156.547C422.706 154.724 421.011 153.812 418.843 153.812C416.708 153.812 415.014 154.724 413.76 156.547C412.54 158.37 411.93 161.188 411.93 165C411.93 168.812 412.54 171.63 413.76 173.453C415.014 175.276 416.708 176.188 418.843 176.188Z" fill="white"/>
<path d="M453.34 183C450.392 183 447.766 182.287 445.462 180.862C443.158 179.436 441.345 177.381 440.023 174.696C438.736 171.978 438.092 168.746 438.092 165C438.092 161.254 438.736 158.039 440.023 155.354C441.345 152.635 443.158 150.564 445.462 149.138C447.766 147.713 450.392 147 453.34 147C456.289 147 458.915 147.713 461.219 149.138C463.523 150.564 465.319 152.635 466.607 155.354C467.928 158.039 468.589 161.254 468.589 165C468.589 168.746 467.928 171.978 466.607 174.696C465.319 177.381 463.523 179.436 461.219 180.862C458.915 182.287 456.289 183 453.34 183ZM453.34 176.188C455.509 176.188 457.203 175.276 458.423 173.453C459.677 171.63 460.304 168.812 460.304 165C460.304 161.188 459.677 158.37 458.423 156.547C457.203 154.724 455.509 153.812 453.34 153.812C451.206 153.812 449.511 154.724 448.258 156.547C447.038 158.37 446.428 161.188 446.428 165C446.428 168.812 447.038 171.63 448.258 173.453C449.511 175.276 451.206 176.188 453.34 176.188Z" fill="white"/>
</g>
<defs>
<clipPath id="clip0">
<rect width="655" height="250" fill="white"/>
</clipPath>
</defs>
</svg>
